<svg id="svg" version="1.1" xmlns="http://www.w3.org/2000/svg" xmlns:xlink="http://www.w3.org/1999/xlink" width="400" height="82.16216216216216" viewBox="0, 0, 400,82.16216216216216"><g id="svgg"><path id="path0" d="M330.333 43.250 L 330.333 80.833 339.167 80.833 L 348.000 80.833 348.000 43.250 L 348.000 5.667 339.167 5.667 L 330.333 5.667 330.333 43.250 " stroke="none" fill="#acbcfc" fill-rule="evenodd"></path><path id="path1" d="M280.500 40.833 L 280.500 80.833 289.417 80.833 L 298.333 80.833 298.333 40.833 L 298.333 0.833 289.417 0.833 L 280.500 0.833 280.500 40.833 M11.203 4.843 C 10.353 4.911,9.565 5.040,9.453 5.129 C 9.341 5.218,8.856 5.389,8.375 5.510 C 7.894 5.631,7.500 5.775,7.500 5.831 C 7.500 5.887,7.229 6.031,6.898 6.151 C 6.153 6.420,4.082 8.484,3.923 9.116 C 3.859 9.371,3.719 9.634,3.612 9.701 C 3.347 9.864,3.339 14.296,3.603 14.464 C 3.705 14.530,3.840 14.750,3.904 14.954 C 4.055 15.436,5.714 17.106,6.195 17.259 C 6.400 17.324,6.661 17.470,6.775 17.584 C 6.888 17.698,7.323 17.892,7.741 18.015 C 8.158 18.139,8.500 18.286,8.500 18.343 C 8.500 18.400,8.931 18.538,9.458 18.649 C 9.985 18.760,10.567 18.917,10.750 18.997 C 10.933 19.076,11.815 19.267,12.708 19.420 C 13.602 19.572,14.333 19.751,14.333 19.817 C 14.333 19.883,14.704 20.032,15.157 20.148 C 15.610 20.264,16.069 20.466,16.177 20.596 C 16.286 20.727,16.447 20.833,16.537 20.833 C 16.773 20.833,17.678 21.841,17.852 22.298 C 18.397 23.733,17.713 25.704,16.542 26.071 C 16.335 26.136,16.167 26.252,16.167 26.328 C 16.167 26.571,14.501 26.877,13.186 26.876 C 11.816 26.876,10.000 26.566,10.000 26.333 C 10.000 26.254,9.831 26.137,9.625 26.072 C 9.140 25.921,7.745 24.527,7.594 24.042 C 7.530 23.835,7.416 23.667,7.342 23.667 C 7.267 23.667,7.121 23.329,7.017 22.917 L 6.829 22.167 4.614 22.167 C 3.114 22.167,2.335 22.231,2.200 22.367 C 1.975 22.592,1.923 24.000,2.140 24.000 C 2.217 24.000,2.373 24.412,2.485 24.917 C 2.598 25.421,2.755 25.833,2.834 25.833 C 2.913 25.833,3.031 26.002,3.096 26.208 C 3.284 26.805,5.570 28.952,6.155 29.081 C 6.436 29.143,6.667 29.259,6.667 29.340 C 6.667 29.421,6.985 29.580,7.375 29.694 C 7.765 29.807,8.121 29.950,8.167 30.011 C 8.669 30.678,16.730 30.675,17.583 30.007 C 17.675 29.935,18.050 29.781,18.417 29.664 C 18.783 29.547,19.121 29.398,19.167 29.332 C 19.212 29.267,19.497 29.086,19.799 28.932 C 20.698 28.471,21.667 27.592,21.667 27.236 C 21.667 27.126,21.761 26.999,21.877 26.955 C 23.295 26.411,23.295 19.756,21.877 19.212 C 21.761 19.167,21.667 19.039,21.667 18.927 C 21.667 18.697,20.449 17.667,20.176 17.667 C 20.079 17.667,20.000 17.598,20.000 17.514 C 20.000 17.329,17.998 16.333,17.626 16.333 C 17.480 16.333,17.336 16.263,17.306 16.178 C 17.275 16.093,16.575 15.888,15.750 15.722 C 14.925 15.557,14.213 15.377,14.167 15.322 C 14.121 15.267,13.523 15.131,12.838 15.020 C 12.154 14.909,11.554 14.760,11.505 14.688 C 11.456 14.617,11.054 14.459,10.610 14.337 C 10.166 14.215,9.764 14.014,9.717 13.891 C 9.670 13.768,9.528 13.667,9.401 13.667 C 8.331 13.667,7.970 10.711,8.923 9.754 C 10.153 8.520,14.541 7.859,15.159 8.815 C 15.209 8.892,15.435 9.013,15.660 9.083 C 16.615 9.382,17.614 10.855,17.782 12.213 L 17.881 13.009 20.315 12.963 L 22.750 12.917 22.734 11.882 C 22.726 11.312,22.641 10.750,22.545 10.632 C 22.450 10.513,22.321 10.179,22.259 9.889 C 22.197 9.598,22.020 9.204,21.865 9.012 C 21.710 8.820,21.433 8.462,21.250 8.215 C 20.696 7.469,19.471 6.362,18.971 6.155 C 18.712 6.047,18.500 5.901,18.500 5.830 C 18.500 5.758,18.125 5.610,17.666 5.500 C 17.208 5.390,16.794 5.238,16.748 5.163 C 16.669 5.036,15.618 4.906,13.583 4.773 C 13.125 4.743,12.054 4.774,11.203 4.843 M60.617 4.844 C 59.627 4.915,58.727 5.042,58.617 5.126 C 58.507 5.210,57.985 5.371,57.458 5.484 C 56.931 5.598,56.500 5.760,56.500 5.845 C 56.500 5.930,56.423 6.000,56.328 6.000 C 56.101 6.000,55.237 6.405,54.462 6.874 C 53.578 7.409,51.575 9.421,51.255 10.096 C 51.106 10.410,50.925 10.667,50.852 10.667 C 50.779 10.667,50.617 10.985,50.492 11.375 C 50.367 11.765,50.205 12.125,50.133 12.176 C 50.061 12.227,49.914 12.714,49.806 13.259 C 49.699 13.804,49.530 14.304,49.430 14.369 C 49.181 14.533,49.181 20.800,49.430 20.964 C 49.530 21.030,49.699 21.529,49.806 22.074 C 49.914 22.619,50.067 23.106,50.147 23.157 C 50.226 23.208,50.345 23.495,50.409 23.793 C 50.474 24.092,50.615 24.430,50.722 24.543 C 50.830 24.657,51.120 25.062,51.368 25.444 C 52.619 27.369,56.039 29.833,57.461 29.833 C 57.650 29.833,57.831 29.904,57.861 29.991 C 58.102 30.676,66.804 30.688,67.750 30.005 C 67.842 29.939,68.273 29.789,68.708 29.671 C 69.144 29.553,69.500 29.403,69.500 29.338 C 69.500 29.273,69.808 29.118,70.184 28.994 C 70.561 28.870,70.906 28.670,70.952 28.551 C 70.998 28.431,71.140 28.333,71.266 28.333 C 71.393 28.333,71.591 28.183,71.705 28.000 C 71.820 27.817,71.996 27.667,72.096 27.667 C 72.418 27.667,74.500 25.240,74.500 24.865 C 74.500 24.778,74.611 24.615,74.747 24.502 C 74.883 24.390,75.125 23.874,75.284 23.357 C 75.444 22.840,75.622 22.379,75.681 22.333 C 76.309 21.845,76.297 13.518,75.668 13.000 C 75.613 12.954,75.470 12.586,75.352 12.182 C 75.234 11.778,74.957 11.160,74.735 10.810 C 74.514 10.460,74.333 10.134,74.333 10.087 C 74.333 9.830,71.528 7.000,71.274 7.000 C 71.211 7.000,70.880 6.817,70.538 6.593 C 70.196 6.370,69.710 6.137,69.458 6.075 C 69.206 6.014,69.000 5.902,69.000 5.827 C 69.000 5.752,68.569 5.598,68.042 5.484 C 67.515 5.371,67.005 5.219,66.909 5.147 C 66.741 5.020,65.467 4.883,63.417 4.770 C 62.867 4.740,61.607 4.773,60.617 4.844 M89.697 4.848 C 88.751 4.919,87.889 5.049,87.780 5.136 C 87.672 5.224,87.321 5.347,87.000 5.412 C 86.248 5.562,83.317 7.015,83.212 7.290 C 83.167 7.406,83.054 7.500,82.960 7.500 C 82.759 7.500,80.833 9.343,80.833 9.536 C 80.833 9.608,80.702 9.811,80.542 9.988 C 79.988 10.598,79.876 10.775,79.655 11.386 C 79.533 11.724,79.381 12.000,79.318 12.000 C 79.255 12.000,79.075 12.506,78.918 13.125 C 78.761 13.744,78.547 14.430,78.441 14.651 C 78.182 15.195,78.180 20.968,78.440 21.132 C 78.542 21.197,78.682 21.587,78.750 22.000 C 78.859 22.658,79.620 24.434,80.214 25.420 C 80.578 26.024,81.874 27.398,82.567 27.917 C 82.812 28.100,83.141 28.371,83.298 28.520 C 83.455 28.668,83.865 28.880,84.208 28.991 C 84.552 29.102,84.833 29.250,84.833 29.320 C 84.833 29.389,85.152 29.547,85.542 29.670 C 85.931 29.793,86.325 29.946,86.417 30.011 C 87.365 30.680,95.340 30.688,96.244 30.021 C 96.339 29.951,96.735 29.793,97.125 29.670 C 97.515 29.547,97.833 29.396,97.833 29.333 C 97.833 29.271,98.141 29.118,98.518 28.994 C 98.894 28.870,99.240 28.670,99.286 28.551 C 99.331 28.431,99.447 28.333,99.542 28.333 C 99.773 28.333,101.667 26.415,101.667 26.182 C 101.667 26.082,101.733 26.000,101.813 26.000 C 102.244 26.000,103.154 23.395,103.163 22.139 C 103.170 20.989,103.194 21.000,100.832 21.000 L 98.700 21.000 98.492 21.875 C 98.378 22.356,98.240 22.787,98.184 22.833 C 98.129 22.879,97.896 23.288,97.668 23.741 C 97.172 24.725,96.139 25.762,95.381 26.036 C 95.080 26.145,94.833 26.283,94.833 26.344 C 94.833 26.464,93.366 26.770,92.167 26.900 C 90.508 27.079,88.056 26.474,86.850 25.588 C 86.178 25.094,84.849 23.606,84.654 23.129 C 84.531 22.829,84.343 22.493,84.235 22.383 C 84.128 22.273,83.987 21.898,83.921 21.550 C 83.856 21.202,83.716 20.864,83.610 20.798 C 83.340 20.631,83.338 14.703,83.608 14.536 C 83.713 14.470,83.889 14.079,84.000 13.667 C 84.111 13.254,84.250 12.879,84.309 12.833 C 84.368 12.787,84.561 12.487,84.737 12.167 C 84.913 11.846,85.157 11.523,85.279 11.450 C 85.400 11.377,85.500 11.235,85.500 11.136 C 85.500 10.896,86.191 10.265,86.868 9.887 C 87.166 9.720,87.505 9.496,87.620 9.389 C 87.736 9.282,88.074 9.141,88.373 9.076 C 88.672 9.011,88.959 8.892,89.010 8.812 C 89.187 8.535,91.532 8.352,92.899 8.508 C 95.017 8.749,97.105 9.983,97.833 11.422 C 97.971 11.694,98.170 12.009,98.276 12.122 C 98.383 12.234,98.523 12.644,98.589 13.032 C 98.806 14.317,98.836 14.333,101.026 14.333 C 102.097 14.333,103.091 14.288,103.236 14.232 C 103.538 14.116,103.629 12.167,103.333 12.167 C 103.242 12.167,103.167 12.030,103.167 11.863 C 103.167 11.514,102.664 9.958,102.511 9.833 C 102.455 9.787,102.278 9.544,102.118 9.293 C 101.284 7.981,98.886 6.000,98.134 6.000 C 97.968 6.000,97.833 5.928,97.833 5.840 C 97.833 5.752,97.383 5.587,96.833 5.473 C 96.283 5.360,95.833 5.213,95.833 5.147 C 95.833 5.025,94.716 4.900,92.583 4.782 C 91.942 4.746,90.643 4.776,89.697 4.848 M220.431 4.851 C 219.522 4.925,218.735 5.046,218.681 5.120 C 218.627 5.195,218.210 5.352,217.754 5.471 C 217.298 5.589,216.885 5.742,216.837 5.811 C 216.789 5.879,216.506 6.034,216.207 6.155 C 215.462 6.456,213.639 8.253,213.151 9.167 C 212.542 10.306,212.548 13.921,213.160 14.917 C 214.012 16.303,216.520 18.163,217.542 18.166 C 217.702 18.166,217.833 18.231,217.833 18.311 C 217.833 18.390,218.302 18.551,218.875 18.669 C 219.448 18.787,219.992 18.935,220.083 18.998 C 220.175 19.060,221.019 19.249,221.958 19.417 C 222.898 19.585,223.667 19.771,223.667 19.830 C 223.667 19.889,224.042 20.033,224.500 20.151 C 224.958 20.268,225.333 20.427,225.333 20.504 C 225.333 20.581,225.475 20.689,225.647 20.744 C 228.011 21.494,227.939 25.006,225.533 26.285 C 224.128 27.032,219.333 27.070,219.333 26.333 C 219.333 26.262,219.165 26.159,218.958 26.106 C 218.510 25.990,217.000 24.553,217.000 24.242 C 217.000 24.122,216.893 23.917,216.763 23.787 C 216.633 23.657,216.443 23.239,216.340 22.858 L 216.154 22.167 213.830 22.167 L 211.506 22.167 211.399 22.595 C 211.275 23.088,211.439 24.520,211.634 24.658 C 211.707 24.708,211.859 25.069,211.973 25.458 C 212.087 25.848,212.247 26.167,212.329 26.167 C 212.411 26.167,212.520 26.300,212.572 26.463 C 212.728 26.956,214.516 28.650,215.197 28.950 C 215.547 29.104,215.833 29.280,215.833 29.339 C 215.833 29.399,216.152 29.542,216.542 29.657 C 216.931 29.773,217.325 29.926,217.417 29.997 C 218.283 30.667,226.833 30.675,226.833 30.005 C 226.833 29.945,227.208 29.800,227.667 29.683 C 228.125 29.565,228.500 29.415,228.500 29.349 C 228.500 29.283,228.762 29.103,229.083 28.950 C 229.404 28.797,229.667 28.596,229.667 28.503 C 229.667 28.410,229.765 28.333,229.885 28.333 C 230.135 28.333,231.000 27.482,231.000 27.236 C 231.000 27.147,231.148 26.947,231.329 26.793 C 231.510 26.638,231.709 26.302,231.771 26.047 C 231.834 25.792,231.967 25.530,232.067 25.464 C 232.318 25.301,232.318 20.865,232.067 20.702 C 231.967 20.637,231.837 20.390,231.780 20.154 C 231.630 19.540,230.182 17.916,229.625 17.738 C 229.465 17.686,229.333 17.579,229.333 17.500 C 229.333 17.420,229.071 17.260,228.750 17.144 C 228.429 17.028,228.167 16.879,228.167 16.813 C 228.167 16.747,227.885 16.605,227.542 16.499 C 227.198 16.392,226.691 16.204,226.416 16.081 C 226.141 15.958,225.391 15.762,224.750 15.646 C 224.108 15.531,223.546 15.388,223.500 15.329 C 223.454 15.271,222.856 15.131,222.172 15.020 C 221.487 14.909,220.887 14.756,220.838 14.680 C 220.790 14.604,220.487 14.488,220.167 14.421 C 219.221 14.226,218.058 13.341,217.826 12.640 C 217.375 11.282,218.075 9.167,218.975 9.167 C 219.067 9.167,219.257 9.053,219.396 8.913 C 219.927 8.382,224.158 8.297,224.490 8.810 C 224.541 8.890,224.738 9.003,224.927 9.062 C 225.434 9.220,226.432 10.188,226.581 10.667 C 226.653 10.896,226.778 11.126,226.860 11.179 C 226.942 11.232,227.055 11.663,227.111 12.138 L 227.213 13.000 229.490 13.000 C 231.038 13.000,231.831 12.936,231.967 12.800 C 232.195 12.571,232.241 11.333,232.021 11.333 C 231.941 11.333,231.826 11.024,231.766 10.646 C 231.435 8.577,228.709 5.804,226.620 5.413 C 226.279 5.349,226.000 5.236,226.000 5.161 C 226.000 5.037,224.993 4.910,222.917 4.772 C 222.458 4.742,221.340 4.777,220.431 4.851 M256.709 4.835 C 255.770 4.902,254.908 5.034,254.793 5.127 C 254.678 5.220,254.152 5.392,253.625 5.508 C 253.098 5.624,252.667 5.768,252.667 5.826 C 252.667 5.885,252.396 6.031,252.065 6.151 C 251.734 6.270,251.191 6.549,250.857 6.770 C 250.523 6.992,250.110 7.265,249.938 7.378 C 249.513 7.657,247.667 9.449,247.667 9.582 C 247.667 9.641,247.488 9.928,247.269 10.219 C 247.051 10.511,246.821 10.919,246.758 11.125 C 246.695 11.331,246.583 11.500,246.507 11.500 C 246.432 11.500,246.270 11.838,246.149 12.250 C 246.027 12.662,245.875 13.000,245.812 13.000 C 245.749 13.000,245.611 13.544,245.506 14.208 C 245.401 14.873,245.244 15.647,245.158 15.928 C 244.948 16.609,244.955 19.453,245.167 19.583 C 245.258 19.640,245.333 19.941,245.333 20.252 C 245.333 20.927,245.653 22.515,245.836 22.750 C 245.907 22.842,246.060 23.235,246.176 23.625 C 246.291 24.015,246.444 24.333,246.515 24.333 C 246.586 24.333,246.697 24.502,246.760 24.708 C 246.881 25.098,248.423 27.167,248.737 27.361 C 248.836 27.421,249.142 27.665,249.417 27.902 C 249.692 28.139,250.002 28.333,250.107 28.333 C 250.212 28.333,250.335 28.431,250.381 28.551 C 250.427 28.670,250.773 28.870,251.149 28.994 C 251.525 29.118,251.833 29.280,251.833 29.353 C 251.833 29.427,252.152 29.578,252.542 29.689 C 252.931 29.801,253.325 29.947,253.417 30.015 C 254.338 30.694,262.186 30.691,263.083 30.011 C 263.175 29.942,263.606 29.789,264.042 29.671 C 264.477 29.553,264.833 29.397,264.833 29.325 C 264.833 29.252,265.082 29.110,265.386 29.010 C 266.326 28.700,268.445 26.772,268.848 25.860 C 268.977 25.570,269.135 25.333,269.201 25.333 C 269.266 25.333,269.413 25.015,269.527 24.625 C 269.641 24.235,269.791 23.876,269.861 23.827 C 270.050 23.695,270.227 21.928,270.102 21.430 L 269.994 21.000 267.830 21.000 C 266.018 21.000,265.667 21.041,265.667 21.250 C 265.667 21.387,265.604 21.500,265.527 21.500 C 265.449 21.500,265.295 21.908,265.184 22.406 C 265.072 22.905,264.835 23.498,264.657 23.724 C 264.479 23.951,264.333 24.204,264.333 24.287 C 264.333 24.566,262.709 25.862,261.836 26.279 C 260.107 27.107,256.614 27.092,254.980 26.250 C 253.654 25.566,252.167 24.395,252.166 24.034 C 252.166 23.970,251.986 23.707,251.766 23.451 C 251.546 23.196,251.267 22.652,251.147 22.243 C 251.026 21.834,250.875 21.500,250.812 21.500 C 250.225 21.500,250.208 15.298,250.791 13.999 C 250.976 13.587,251.183 13.063,251.251 12.833 C 251.319 12.604,251.497 12.292,251.646 12.139 C 251.795 11.986,252.173 11.495,252.486 11.048 C 252.815 10.579,253.325 10.103,253.694 9.924 C 254.046 9.753,254.333 9.562,254.333 9.500 C 254.333 9.438,254.652 9.284,255.042 9.159 C 255.431 9.033,255.793 8.869,255.846 8.795 C 256.152 8.359,260.817 8.363,261.392 8.799 C 261.497 8.879,261.846 9.048,262.167 9.174 C 262.836 9.438,262.845 9.444,263.792 10.279 C 264.181 10.622,264.500 10.992,264.500 11.100 C 264.500 11.209,264.602 11.337,264.728 11.385 C 264.853 11.433,265.057 11.816,265.181 12.236 C 265.305 12.656,265.455 13.000,265.515 13.000 C 265.575 13.000,265.672 13.302,265.731 13.671 L 265.839 14.343 268.044 14.296 L 270.250 14.250 270.301 13.448 C 270.358 12.558,270.053 10.833,269.840 10.833 C 269.764 10.833,269.652 10.627,269.591 10.375 C 269.376 9.497,267.694 7.435,266.750 6.893 C 265.250 6.031,264.072 5.489,263.505 5.398 C 263.136 5.339,262.833 5.232,262.833 5.160 C 262.833 5.040,261.761 4.920,259.333 4.770 C 258.829 4.738,257.648 4.768,256.709 4.835 M24.792 5.347 C 24.407 5.768,24.366 8.390,24.738 8.762 C 24.933 8.957,25.822 9.000,29.655 9.000 L 34.333 9.000 34.333 19.320 C 34.333 24.996,34.379 29.758,34.434 29.903 C 34.585 30.296,38.581 30.296,38.732 29.903 C 38.788 29.758,38.833 24.996,38.833 19.320 L 38.833 9.000 43.515 9.000 C 49.078 9.000,48.818 9.096,48.828 7.034 C 48.833 5.961,48.785 5.770,48.424 5.409 L 48.015 5.000 36.549 5.014 C 25.472 5.027,25.073 5.039,24.792 5.347 M108.116 5.440 C 107.974 5.582,107.960 29.534,108.101 29.903 C 108.252 30.296,112.248 30.296,112.399 29.903 C 112.454 29.758,112.500 28.022,112.500 26.045 L 112.500 22.450 113.563 21.418 L 114.627 20.385 114.938 20.810 C 115.110 21.043,115.775 21.780,116.417 22.448 C 117.675 23.757,119.868 26.108,120.585 26.917 C 121.483 27.929,122.343 28.822,122.626 29.033 C 122.786 29.152,123.023 29.456,123.153 29.708 L 123.390 30.167 126.259 30.167 C 129.093 30.167,129.129 30.162,129.228 29.792 C 129.398 29.157,129.366 29.097,128.208 27.894 C 127.590 27.252,125.733 25.321,124.083 23.605 C 122.433 21.888,120.424 19.808,119.618 18.982 L 118.153 17.481 119.142 16.532 C 119.686 16.010,120.940 14.833,121.930 13.917 C 122.919 13.000,124.232 11.762,124.847 11.167 C 125.462 10.571,126.402 9.708,126.935 9.250 C 128.321 8.061,130.000 6.319,130.000 6.071 C 130.000 5.363,129.894 5.333,127.357 5.334 L 124.917 5.334 123.858 6.417 C 123.276 7.013,122.747 7.500,122.683 7.500 C 122.618 7.500,121.809 8.231,120.885 9.125 C 119.961 10.019,118.396 11.500,117.407 12.417 C 116.418 13.333,114.934 14.740,114.108 15.542 C 113.283 16.344,112.584 17.000,112.556 17.000 C 112.527 17.000,112.485 14.394,112.460 11.208 L 112.417 5.417 110.324 5.370 C 109.173 5.345,108.180 5.376,108.116 5.440 M152.042 5.444 C 151.669 5.594,151.746 29.560,152.120 29.998 C 152.552 30.503,155.781 30.503,156.213 29.998 C 156.476 29.691,156.501 28.956,156.508 21.123 C 156.515 13.172,156.534 12.635,156.776 13.333 C 156.919 13.746,157.091 14.158,157.159 14.250 C 157.226 14.342,157.378 14.773,157.496 15.208 C 157.614 15.644,157.768 16.000,157.838 16.000 C 157.909 16.000,158.057 16.375,158.167 16.833 C 158.277 17.292,158.425 17.667,158.497 17.667 C 158.568 17.667,158.713 18.008,158.818 18.426 C 158.924 18.844,159.157 19.461,159.338 19.798 C 159.518 20.135,159.712 20.656,159.768 20.955 C 159.824 21.255,159.925 21.500,159.992 21.500 C 160.059 21.500,160.209 21.819,160.324 22.208 C 160.440 22.598,160.592 22.992,160.662 23.083 C 160.732 23.175,160.922 23.662,161.083 24.167 C 161.245 24.671,161.435 25.158,161.505 25.250 C 161.575 25.342,161.727 25.735,161.843 26.125 C 161.958 26.515,162.116 26.833,162.193 26.833 C 162.270 26.833,162.333 26.960,162.333 27.114 C 162.333 27.268,162.493 27.725,162.688 28.128 C 162.884 28.532,163.136 29.174,163.248 29.556 L 163.453 30.250 165.852 30.298 C 168.964 30.360,168.895 30.382,169.166 29.254 C 169.287 28.748,169.449 28.333,169.524 28.333 C 169.600 28.333,169.747 27.996,169.851 27.583 C 169.955 27.171,170.092 26.833,170.156 26.833 C 170.221 26.833,170.375 26.458,170.500 26.000 C 170.625 25.542,170.776 25.167,170.837 25.167 C 170.897 25.167,171.086 24.679,171.256 24.083 C 171.427 23.487,171.620 23.000,171.686 23.000 C 171.753 23.000,171.860 22.759,171.924 22.465 C 171.989 22.171,172.178 21.664,172.345 21.340 C 172.512 21.015,172.736 20.394,172.844 19.958 C 172.952 19.523,173.100 19.167,173.173 19.167 C 173.247 19.167,173.360 18.923,173.426 18.625 C 173.491 18.327,173.684 17.822,173.855 17.503 C 174.026 17.184,174.212 16.678,174.268 16.378 C 174.324 16.078,174.425 15.833,174.492 15.833 C 174.559 15.833,174.753 15.365,174.924 14.792 C 175.094 14.219,175.282 13.713,175.341 13.667 C 175.400 13.621,175.516 13.358,175.599 13.083 C 175.695 12.766,175.766 15.709,175.793 21.125 C 175.833 28.911,175.862 29.696,176.122 30.000 C 176.552 30.503,179.782 30.501,180.213 29.998 C 180.636 29.504,180.659 5.597,180.236 5.434 C 180.091 5.379,178.560 5.333,176.833 5.333 L 173.693 5.333 173.498 5.958 C 173.392 6.302,173.167 6.889,172.999 7.262 C 172.830 7.635,172.641 8.216,172.578 8.554 C 172.515 8.891,172.402 9.167,172.328 9.167 C 172.254 9.167,172.142 9.410,172.080 9.708 C 172.018 10.006,171.870 10.404,171.752 10.592 C 171.633 10.780,171.405 11.398,171.246 11.967 C 171.087 12.535,170.903 13.000,170.838 13.000 C 170.773 13.000,170.621 13.412,170.500 13.917 C 170.379 14.421,170.231 14.833,170.170 14.833 C 170.110 14.833,169.958 15.208,169.833 15.667 C 169.709 16.125,169.556 16.500,169.495 16.500 C 169.433 16.500,169.251 16.987,169.090 17.583 C 168.928 18.179,168.738 18.667,168.667 18.667 C 168.595 18.667,168.486 18.948,168.423 19.292 C 168.360 19.635,168.209 20.072,168.087 20.262 C 167.964 20.452,167.767 20.940,167.649 21.345 C 167.530 21.751,167.388 22.121,167.333 22.167 C 167.204 22.275,166.667 23.969,166.667 24.269 C 166.667 24.396,166.592 24.500,166.500 24.500 C 166.408 24.500,166.326 24.631,166.316 24.792 C 166.307 24.952,166.221 24.840,166.126 24.542 C 166.030 24.244,165.895 24.000,165.826 24.000 C 165.757 24.000,165.610 23.625,165.500 23.167 C 165.390 22.708,165.249 22.333,165.186 22.333 C 165.124 22.333,164.971 21.977,164.847 21.542 C 164.722 21.106,164.481 20.435,164.310 20.051 C 164.140 19.666,164.000 19.240,164.000 19.104 C 164.000 18.968,163.901 18.758,163.780 18.637 C 163.659 18.516,163.467 18.046,163.353 17.593 C 163.239 17.140,163.000 16.450,162.823 16.060 C 162.645 15.671,162.500 15.290,162.500 15.215 C 162.500 15.140,162.355 14.808,162.178 14.478 C 162.002 14.149,161.806 13.606,161.743 13.273 C 161.681 12.939,161.575 12.667,161.508 12.667 C 161.441 12.667,161.247 12.179,161.077 11.583 C 160.907 10.987,160.716 10.500,160.654 10.500 C 160.592 10.500,160.497 10.275,160.442 10.000 C 160.387 9.725,160.188 9.163,160.000 8.750 C 159.812 8.337,159.613 7.775,159.558 7.500 C 159.503 7.225,159.400 7.000,159.328 7.000 C 159.256 7.000,159.101 6.625,158.984 6.167 L 158.770 5.333 155.510 5.346 C 153.717 5.354,152.156 5.397,152.042 5.444 M186.208 5.444 C 185.972 5.539,185.892 23.667,186.129 23.667 C 186.199 23.667,186.342 24.115,186.446 24.663 C 186.551 25.211,186.755 25.779,186.901 25.925 C 187.047 26.071,187.167 26.293,187.167 26.419 C 187.167 26.545,187.298 26.746,187.458 26.866 C 187.619 26.985,187.846 27.271,187.964 27.500 C 188.082 27.730,188.592 28.180,189.097 28.500 C 189.602 28.821,190.108 29.166,190.221 29.267 C 190.333 29.367,190.724 29.546,191.088 29.663 C 191.452 29.781,191.825 29.933,191.917 30.001 C 192.820 30.676,201.833 30.671,201.833 29.996 C 201.833 29.927,202.093 29.822,202.411 29.762 C 202.729 29.702,203.085 29.560,203.203 29.445 C 203.321 29.330,203.642 29.144,203.917 29.032 C 204.491 28.797,206.167 27.310,206.167 27.034 C 206.167 26.933,206.260 26.790,206.375 26.717 C 206.632 26.552,207.000 25.912,207.001 25.627 C 207.002 25.511,207.133 25.192,207.293 24.917 C 207.560 24.457,207.583 23.649,207.583 14.917 L 207.583 5.417 205.417 5.417 L 203.250 5.417 203.167 14.298 C 203.109 20.418,203.027 23.216,202.902 23.298 C 202.803 23.363,202.638 23.661,202.536 23.959 C 202.300 24.648,201.099 25.939,200.570 26.072 C 200.348 26.127,200.167 26.241,200.167 26.325 C 200.167 26.579,198.333 26.881,196.807 26.878 C 195.359 26.874,193.667 26.581,193.667 26.335 C 193.667 26.262,193.489 26.158,193.273 26.104 C 192.928 26.018,192.002 25.203,191.378 24.439 C 190.872 23.818,190.795 22.627,190.714 14.167 C 190.655 7.973,190.579 5.549,190.441 5.461 C 190.229 5.325,186.539 5.310,186.208 5.444 M236.783 5.440 C 236.641 5.582,236.626 29.534,236.768 29.903 C 236.954 30.388,240.965 30.285,241.084 29.792 C 241.134 29.585,241.155 24.017,241.129 17.417 L 241.083 5.417 238.991 5.370 C 237.840 5.345,236.846 5.376,236.783 5.440 M64.167 8.510 C 64.942 8.607,65.615 8.741,65.663 8.809 C 65.711 8.876,66.069 9.033,66.458 9.159 C 66.848 9.284,67.167 9.438,67.167 9.501 C 67.167 9.564,67.448 9.746,67.792 9.905 C 68.135 10.063,68.642 10.490,68.917 10.852 C 69.192 11.214,69.586 11.726,69.793 11.989 C 69.999 12.252,70.215 12.699,70.272 12.983 C 70.329 13.268,70.428 13.500,70.492 13.500 C 71.295 13.500,71.293 20.176,70.490 21.940 C 70.312 22.329,70.167 22.695,70.167 22.752 C 70.167 22.809,69.979 23.101,69.750 23.402 C 69.521 23.702,69.333 23.989,69.333 24.040 C 69.333 24.392,67.442 25.860,66.708 26.078 C 66.502 26.139,66.333 26.251,66.333 26.326 C 66.333 26.452,65.183 26.694,63.576 26.905 C 61.912 27.123,58.946 26.455,57.885 25.623 C 57.319 25.180,55.667 23.477,55.667 23.338 C 55.667 23.257,55.569 23.091,55.449 22.970 C 55.206 22.724,54.667 20.928,54.667 20.364 C 54.667 20.164,54.592 20.000,54.500 20.000 C 54.292 20.000,54.272 15.784,54.478 15.373 C 54.558 15.214,54.747 14.562,54.899 13.924 C 55.051 13.286,55.230 12.723,55.296 12.674 C 55.363 12.624,55.530 12.363,55.667 12.093 C 55.992 11.454,57.535 9.898,57.984 9.755 C 58.176 9.694,58.333 9.577,58.333 9.495 C 58.333 9.413,58.652 9.261,59.042 9.156 C 59.431 9.051,59.792 8.898,59.844 8.815 C 59.896 8.732,60.496 8.599,61.177 8.520 C 61.859 8.441,62.494 8.367,62.588 8.355 C 62.682 8.343,63.393 8.413,64.167 8.510 " stroke="none" fill="#fcfcfc" fill-rule="evenodd"></path><path id="path2" d="M305.375 46.708 L 305.417 80.750 314.292 80.793 L 323.167 80.836 323.167 46.751 L 323.167 12.667 314.250 12.667 L 305.333 12.667 305.375 46.708 " stroke="none" fill="#d4dcfc" fill-rule="evenodd"></path><path id="path3" d="M355.167 48.167 L 355.167 80.833 364.000 80.833 L 372.833 80.833 372.833 48.167 L 372.833 15.500 364.000 15.500 L 355.167 15.500 355.167 48.167 " stroke="none" fill="#8c9cfc" fill-rule="evenodd"></path><path id="path4" d="M380.000 40.917 L 380.000 80.833 388.833 80.833 L 397.667 80.833 397.667 40.917 L 397.667 1.000 388.833 1.000 L 380.000 1.000 380.000 40.917 M105.931 39.458 C 105.862 39.527,105.156 39.706,104.361 39.856 C 102.847 40.142,101.071 40.754,100.696 41.119 C 100.575 41.237,100.396 41.333,100.297 41.333 C 99.735 41.333,97.144 43.512,95.935 45.000 C 95.630 45.376,94.667 47.423,94.667 47.695 C 94.667 47.826,94.573 48.027,94.458 48.142 C 94.306 48.294,94.250 49.202,94.250 51.500 C 94.250 53.798,94.306 54.706,94.458 54.858 C 94.573 54.973,94.667 55.220,94.667 55.408 C 94.668 55.749,95.636 57.769,96.038 58.271 C 96.558 58.919,98.060 60.308,98.468 60.518 C 98.715 60.646,99.062 60.881,99.240 61.042 C 99.417 61.202,99.661 61.333,99.781 61.333 C 99.902 61.333,100.000 61.408,100.000 61.500 C 100.000 61.592,100.075 61.667,100.166 61.667 C 100.258 61.667,100.807 61.891,101.387 62.165 C 101.967 62.439,102.680 62.711,102.971 62.769 C 103.262 62.827,103.500 62.932,103.500 63.003 C 103.500 63.073,103.987 63.227,104.583 63.346 C 105.179 63.464,105.667 63.612,105.667 63.674 C 105.667 63.737,106.323 63.918,107.125 64.076 C 107.927 64.235,108.658 64.424,108.750 64.497 C 108.842 64.570,109.348 64.725,109.875 64.841 C 110.402 64.958,110.833 65.106,110.833 65.172 C 110.833 65.237,111.171 65.385,111.583 65.500 C 111.996 65.615,112.333 65.758,112.333 65.817 C 112.333 65.876,112.612 66.073,112.952 66.254 C 113.683 66.643,114.445 67.398,114.600 67.887 C 114.661 68.078,114.820 68.344,114.954 68.478 C 115.341 68.865,115.189 71.459,114.750 71.971 C 113.128 73.858,112.242 74.241,109.484 74.246 C 108.233 74.248,107.290 74.177,107.151 74.070 C 107.022 73.972,106.542 73.754,106.083 73.586 C 105.625 73.419,105.190 73.181,105.117 73.057 C 105.043 72.934,104.908 72.833,104.817 72.833 C 104.593 72.833,103.500 71.762,103.500 71.543 C 103.500 71.447,103.402 71.331,103.283 71.286 C 103.163 71.240,102.963 70.894,102.839 70.518 C 102.715 70.141,102.555 69.833,102.484 69.833 C 102.412 69.833,102.303 69.496,102.241 69.083 L 102.129 68.333 97.314 68.333 L 92.500 68.333 92.506 68.875 C 92.515 69.729,92.962 72.029,93.157 72.224 C 93.254 72.321,93.333 72.510,93.333 72.645 C 93.333 72.884,94.268 74.916,94.532 75.250 C 95.533 76.519,96.388 77.500,96.494 77.500 C 96.566 77.500,96.944 77.800,97.333 78.167 C 97.723 78.533,98.144 78.833,98.271 78.833 C 98.397 78.833,98.500 78.891,98.500 78.961 C 98.500 79.095,99.717 79.667,100.001 79.667 C 100.092 79.667,100.167 79.733,100.167 79.814 C 100.167 79.894,100.522 80.050,100.956 80.159 C 101.390 80.269,101.829 80.427,101.930 80.511 C 102.031 80.595,102.895 80.786,103.849 80.935 C 104.803 81.084,105.714 81.272,105.873 81.353 C 106.284 81.562,113.000 81.544,113.000 81.333 C 113.000 81.242,113.220 81.167,113.489 81.167 C 114.104 81.167,116.331 80.704,116.571 80.526 C 116.669 80.453,117.069 80.293,117.458 80.170 C 117.848 80.047,118.167 79.899,118.167 79.840 C 118.167 79.782,118.439 79.635,118.771 79.515 C 119.104 79.395,119.685 79.077,120.063 78.809 C 120.441 78.542,120.923 78.201,121.135 78.052 C 121.988 77.454,123.500 75.735,123.500 75.365 C 123.500 75.271,123.563 75.169,123.640 75.139 C 123.965 75.010,124.689 73.201,124.855 72.103 C 124.954 71.450,125.102 70.786,125.184 70.627 C 125.388 70.232,125.374 68.045,125.167 67.917 C 125.075 67.860,124.998 67.537,124.996 67.198 C 124.988 65.990,124.103 63.396,123.630 63.194 C 123.559 63.164,123.500 63.066,123.500 62.976 C 123.500 62.535,122.086 61.007,120.750 60.004 C 120.383 59.729,120.004 59.438,119.906 59.358 C 119.809 59.278,119.434 59.074,119.073 58.906 C 118.712 58.738,118.379 58.551,118.333 58.491 C 118.287 58.431,117.950 58.285,117.583 58.167 C 117.217 58.048,116.879 57.898,116.833 57.833 C 116.694 57.636,113.581 56.689,112.678 56.569 C 112.213 56.507,111.833 56.405,111.833 56.342 C 111.833 56.279,111.327 56.128,110.708 56.007 C 110.090 55.885,109.546 55.736,109.500 55.676 C 109.454 55.616,108.948 55.428,108.375 55.257 C 107.802 55.087,107.333 54.892,107.333 54.825 C 107.333 54.758,107.165 54.660,106.958 54.608 C 105.274 54.180,104.070 52.192,104.205 50.064 C 104.545 44.708,113.477 45.583,114.599 51.083 C 114.655 51.358,114.787 51.790,114.891 52.042 L 115.081 52.500 119.791 52.500 L 124.500 52.500 124.500 51.667 C 124.500 51.208,124.440 50.833,124.366 50.833 C 124.292 50.833,124.137 50.271,124.022 49.583 C 123.906 48.896,123.749 48.333,123.672 48.333 C 123.596 48.333,123.443 47.958,123.333 47.499 C 123.223 47.041,123.068 46.625,122.988 46.576 C 122.908 46.526,122.711 46.208,122.552 45.868 C 122.225 45.175,122.080 44.967,121.542 44.424 C 121.335 44.215,121.167 43.988,121.167 43.917 C 121.167 43.804,120.600 43.249,119.720 42.501 C 117.971 41.014,114.694 39.667,112.825 39.667 C 112.555 39.667,112.333 39.592,112.333 39.500 C 112.333 39.304,106.125 39.264,105.931 39.458 M253.785 39.437 C 253.728 39.495,252.984 39.674,252.132 39.836 C 250.523 40.142,248.744 40.748,248.363 41.119 C 248.242 41.237,248.041 41.333,247.917 41.333 C 247.792 41.333,247.588 41.436,247.462 41.562 C 247.336 41.687,246.986 41.918,246.684 42.074 C 246.203 42.323,244.370 44.059,243.674 44.924 C 243.344 45.335,242.333 47.436,242.333 47.711 C 242.333 47.833,242.240 48.027,242.125 48.142 C 241.973 48.294,241.917 49.202,241.917 51.500 C 241.917 53.798,241.973 54.706,242.125 54.858 C 242.240 54.973,242.333 55.212,242.333 55.389 C 242.333 55.807,243.469 58.043,243.769 58.217 C 243.896 58.290,244.000 58.433,244.000 58.534 C 244.000 58.791,245.651 60.292,246.208 60.542 C 246.460 60.655,246.667 60.796,246.667 60.854 C 246.667 60.912,246.892 61.053,247.167 61.167 C 247.442 61.281,247.667 61.440,247.667 61.520 C 247.667 61.601,247.741 61.667,247.833 61.667 C 247.924 61.667,248.474 61.891,249.054 62.165 C 249.634 62.439,250.347 62.711,250.638 62.769 C 250.929 62.827,251.167 62.932,251.167 63.003 C 251.167 63.073,251.654 63.227,252.250 63.346 C 252.846 63.464,253.333 63.612,253.333 63.674 C 253.333 63.737,253.990 63.918,254.792 64.076 C 255.594 64.235,256.325 64.424,256.417 64.497 C 256.508 64.570,257.015 64.725,257.542 64.841 C 258.069 64.958,258.500 65.106,258.500 65.172 C 258.500 65.237,258.837 65.385,259.250 65.500 C 259.662 65.615,260.000 65.758,260.000 65.817 C 260.000 65.876,260.278 66.073,260.619 66.254 C 261.349 66.643,262.112 67.398,262.267 67.887 C 262.328 68.078,262.488 68.346,262.624 68.481 C 263.006 68.864,262.847 71.450,262.409 71.971 C 261.622 72.908,261.186 73.285,260.572 73.561 C 260.212 73.723,259.736 73.945,259.516 74.053 C 259.003 74.305,255.142 74.320,254.817 74.070 C 254.689 73.972,254.208 73.754,253.750 73.586 C 253.292 73.419,252.857 73.181,252.783 73.057 C 252.710 72.934,252.575 72.833,252.483 72.833 C 252.247 72.833,251.167 71.756,251.167 71.520 C 251.167 71.411,251.065 71.284,250.940 71.236 C 250.816 71.188,250.617 70.853,250.497 70.491 C 250.378 70.129,250.222 69.833,250.150 69.833 C 250.079 69.833,249.970 69.496,249.908 69.083 L 249.795 68.333 244.981 68.333 L 240.167 68.333 240.167 68.743 C 240.167 69.497,240.539 71.667,240.668 71.667 C 240.739 71.667,240.847 71.948,240.909 72.292 C 240.972 72.635,241.258 73.404,241.545 74.000 C 242.057 75.064,242.164 75.236,242.667 75.809 C 242.804 75.966,243.131 76.379,243.393 76.726 C 243.654 77.073,243.972 77.397,244.098 77.445 C 244.224 77.494,244.638 77.826,245.018 78.183 C 245.397 78.541,245.811 78.833,245.937 78.833 C 246.063 78.833,246.167 78.891,246.167 78.961 C 246.167 79.095,247.383 79.667,247.668 79.667 C 247.759 79.667,247.833 79.733,247.833 79.814 C 247.833 79.894,248.189 80.050,248.623 80.159 C 249.057 80.269,249.495 80.427,249.597 80.511 C 249.698 80.595,250.561 80.786,251.515 80.935 C 252.469 81.084,253.380 81.272,253.539 81.353 C 253.951 81.562,260.667 81.544,260.667 81.333 C 260.667 81.242,260.887 81.167,261.156 81.167 C 261.771 81.167,263.998 80.704,264.238 80.526 C 264.336 80.453,264.735 80.293,265.125 80.170 C 265.515 80.047,265.833 79.899,265.833 79.840 C 265.833 79.782,266.105 79.635,266.438 79.515 C 266.770 79.395,267.351 79.077,267.729 78.809 C 268.107 78.542,268.590 78.201,268.801 78.052 C 269.654 77.454,271.167 75.735,271.167 75.365 C 271.167 75.271,271.230 75.169,271.307 75.139 C 271.539 75.047,272.309 73.382,272.430 72.710 C 272.493 72.366,272.610 71.999,272.691 71.896 C 273.548 70.811,272.403 63.666,271.297 63.194 C 271.225 63.164,271.167 63.066,271.167 62.976 C 271.167 62.745,270.175 61.482,269.583 60.960 C 269.308 60.717,268.869 60.329,268.606 60.098 C 268.344 59.867,267.988 59.632,267.815 59.577 C 267.642 59.522,267.500 59.419,267.500 59.347 C 267.500 59.276,267.162 59.078,266.750 58.908 C 266.337 58.738,266.000 58.551,266.000 58.492 C 266.000 58.434,265.681 58.291,265.292 58.175 C 264.902 58.058,264.546 57.907,264.500 57.839 C 264.365 57.639,261.265 56.691,260.345 56.569 C 259.880 56.507,259.500 56.405,259.500 56.342 C 259.500 56.279,258.994 56.128,258.375 56.007 C 257.756 55.885,257.212 55.736,257.167 55.676 C 257.121 55.616,256.615 55.428,256.042 55.257 C 255.469 55.087,255.000 54.889,255.000 54.818 C 255.000 54.747,254.836 54.637,254.637 54.574 C 251.291 53.512,250.787 48.417,253.885 46.983 C 257.203 45.448,261.536 47.531,262.243 51.000 C 262.308 51.321,262.448 51.790,262.555 52.042 L 262.748 52.500 267.457 52.500 L 272.167 52.500 272.167 51.667 C 272.167 51.208,272.106 50.833,272.033 50.833 C 271.959 50.833,271.804 50.271,271.688 49.583 C 271.573 48.896,271.416 48.333,271.339 48.333 C 271.263 48.333,271.109 47.956,270.999 47.494 C 270.888 47.032,270.712 46.563,270.607 46.452 C 270.502 46.341,270.304 46.025,270.167 45.750 C 269.866 45.149,269.701 44.921,269.208 44.424 C 269.002 44.215,268.833 43.974,268.833 43.887 C 268.833 43.799,268.552 43.489,268.208 43.196 C 267.865 42.904,267.474 42.571,267.341 42.457 C 266.857 42.044,265.400 41.150,264.667 40.817 C 264.254 40.629,263.784 40.405,263.623 40.319 C 263.232 40.109,261.105 39.667,260.489 39.667 C 260.220 39.667,260.000 39.592,260.000 39.500 C 260.000 39.318,253.965 39.257,253.785 39.437 M127.278 40.111 C 127.217 40.172,127.167 41.860,127.167 43.861 L 127.167 47.500 133.917 47.500 L 140.667 47.500 140.667 64.083 L 140.667 80.667 145.333 80.667 L 150.000 80.667 150.000 64.083 L 150.000 47.500 156.667 47.500 L 163.333 47.500 163.333 43.750 L 163.333 40.000 145.361 40.000 C 135.476 40.000,127.339 40.050,127.278 40.111 M167.667 60.416 L 167.667 80.833 182.667 80.833 L 197.667 80.833 197.667 76.917 L 197.667 73.000 187.417 73.000 L 177.167 73.000 177.167 68.500 L 177.167 64.000 186.583 64.000 L 196.000 64.000 196.000 60.333 L 196.000 56.667 186.583 56.667 L 177.167 56.667 177.167 52.083 L 177.167 47.500 187.253 47.500 L 197.340 47.500 197.295 43.792 L 197.250 40.083 182.458 40.041 L 167.667 39.998 167.667 60.416 M204.167 60.309 L 204.167 80.667 208.917 80.667 L 213.667 80.667 213.667 72.727 L 213.667 64.788 217.375 64.910 C 219.415 64.978,221.121 65.090,221.167 65.161 C 221.213 65.231,221.438 65.345,221.667 65.414 C 222.226 65.582,223.399 66.484,223.611 66.908 C 223.704 67.096,223.903 67.475,224.053 67.750 C 224.758 69.047,224.937 69.652,225.245 71.762 C 225.805 75.608,226.029 76.918,226.152 77.079 C 226.224 77.173,226.380 77.719,226.498 78.292 C 226.616 78.865,226.770 79.333,226.841 79.333 C 226.913 79.333,227.021 79.633,227.083 80.000 L 227.196 80.667 232.338 80.667 C 235.441 80.667,237.520 80.603,237.579 80.507 C 237.673 80.355,237.378 79.681,237.138 79.498 C 236.937 79.346,236.039 77.265,235.915 76.667 C 235.849 76.346,235.725 75.997,235.640 75.891 C 235.555 75.785,235.351 74.810,235.187 73.724 C 235.022 72.638,234.847 71.637,234.797 71.500 C 234.747 71.362,234.623 70.430,234.521 69.427 C 234.419 68.425,234.277 67.562,234.204 67.511 C 234.132 67.459,233.970 67.004,233.846 66.500 C 233.721 65.996,233.574 65.546,233.518 65.500 C 233.462 65.454,233.267 65.120,233.083 64.758 C 232.683 63.966,230.947 62.173,230.250 61.829 C 229.331 61.377,229.154 61.000,229.861 61.000 C 230.029 61.000,230.167 60.940,230.167 60.866 C 230.167 60.793,230.542 60.598,231.000 60.433 C 231.458 60.268,231.833 60.078,231.833 60.010 C 231.833 59.942,232.015 59.804,232.237 59.703 C 233.330 59.205,235.003 57.419,235.343 56.386 C 235.444 56.082,235.590 55.833,235.668 55.833 C 235.746 55.833,235.902 55.402,236.014 54.875 C 236.127 54.348,236.283 53.845,236.360 53.758 C 236.437 53.671,236.500 52.542,236.500 51.250 C 236.500 49.958,236.437 48.829,236.360 48.742 C 236.283 48.655,236.124 48.133,236.006 47.583 C 235.889 47.033,235.744 46.546,235.684 46.500 C 235.623 46.454,235.434 46.098,235.262 45.708 C 235.090 45.319,234.883 45.000,234.803 45.000 C 234.722 45.000,234.607 44.869,234.547 44.708 C 234.146 43.643,230.993 41.550,229.288 41.219 C 228.992 41.161,228.711 41.055,228.663 40.984 C 228.552 40.817,226.634 40.503,225.718 40.501 C 225.334 40.501,224.976 40.430,224.923 40.344 C 224.870 40.258,224.697 40.185,224.538 40.182 C 224.380 40.179,219.731 40.126,214.208 40.064 L 204.167 39.952 204.167 60.309 M2.000 60.500 L 2.000 80.833 6.750 80.833 L 11.500 80.833 11.500 66.907 C 11.500 59.247,11.564 53.020,11.642 53.068 C 11.720 53.117,11.883 53.740,12.003 54.453 C 12.123 55.166,12.272 55.788,12.333 55.833 C 12.394 55.879,12.577 56.592,12.738 57.417 C 12.900 58.242,13.088 58.992,13.158 59.083 C 13.227 59.175,13.381 59.737,13.500 60.333 C 13.619 60.929,13.768 61.492,13.831 61.583 C 13.894 61.675,14.041 62.200,14.158 62.750 C 14.275 63.300,14.427 63.825,14.497 63.917 C 14.566 64.008,14.713 64.496,14.823 65.000 C 14.932 65.504,15.125 66.179,15.250 66.500 C 15.375 66.821,15.568 67.496,15.677 68.000 C 15.787 68.504,15.934 68.992,16.004 69.083 C 16.073 69.175,16.222 69.700,16.335 70.250 C 16.447 70.800,16.589 71.287,16.651 71.333 C 16.713 71.379,16.901 72.017,17.069 72.750 C 17.237 73.483,17.433 74.158,17.505 74.250 C 17.576 74.342,17.727 74.885,17.839 75.458 C 17.952 76.031,18.094 76.500,18.155 76.500 C 18.216 76.500,18.363 76.969,18.481 77.542 C 18.600 78.115,18.755 78.658,18.826 78.750 C 18.898 78.842,19.049 79.310,19.161 79.792 L 19.367 80.667 24.426 80.667 L 29.485 80.667 29.594 80.083 C 29.655 79.762,29.757 79.500,29.821 79.500 C 29.886 79.500,30.037 78.994,30.158 78.375 C 30.278 77.756,30.439 77.171,30.516 77.073 C 30.592 76.976,30.784 76.301,30.941 75.573 C 31.099 74.846,31.278 74.212,31.340 74.167 C 31.401 74.121,31.570 73.596,31.716 73.000 C 32.151 71.219,32.507 69.937,32.664 69.583 C 32.746 69.400,32.945 68.650,33.108 67.917 C 33.270 67.183,33.451 66.546,33.511 66.500 C 33.570 66.454,33.718 65.910,33.840 65.292 C 33.962 64.673,34.113 64.167,34.176 64.167 C 34.238 64.167,34.382 63.698,34.494 63.125 C 34.606 62.552,34.758 62.008,34.831 61.917 C 34.904 61.825,35.094 61.150,35.253 60.417 C 35.413 59.683,35.601 59.008,35.672 58.917 C 35.744 58.825,35.895 58.262,36.008 57.667 C 36.122 57.071,36.268 56.508,36.334 56.417 C 36.400 56.325,36.586 55.538,36.749 54.667 C 36.911 53.796,37.109 53.012,37.188 52.925 C 37.271 52.835,37.333 58.805,37.333 66.717 L 37.333 80.667 42.083 80.667 L 46.833 80.667 46.833 60.417 L 46.833 40.167 39.684 40.167 C 33.780 40.167,32.520 40.206,32.448 40.395 C 32.400 40.521,32.308 40.971,32.244 41.395 C 32.181 41.820,32.074 42.167,32.008 42.167 C 31.941 42.167,31.791 42.710,31.674 43.375 C 31.557 44.040,31.402 44.658,31.330 44.750 C 31.257 44.842,31.066 45.592,30.905 46.417 C 30.743 47.242,30.560 47.954,30.497 48.000 C 30.434 48.046,30.286 48.608,30.169 49.250 C 30.052 49.892,29.899 50.492,29.829 50.583 C 29.760 50.675,29.580 51.313,29.431 52.000 C 29.089 53.569,29.094 53.550,28.973 53.750 C 28.918 53.842,28.775 54.479,28.656 55.167 C 28.537 55.854,28.391 56.454,28.331 56.500 C 28.272 56.546,28.124 57.071,28.003 57.667 C 27.882 58.262,27.724 58.827,27.652 58.922 C 27.579 59.016,27.391 59.804,27.234 60.672 C 27.077 61.540,26.897 62.288,26.834 62.333 C 26.771 62.379,26.627 62.896,26.514 63.481 C 26.400 64.067,26.242 64.667,26.161 64.815 C 26.007 65.096,25.703 66.321,25.111 69.042 C 24.693 70.959,24.606 71.019,24.321 69.583 C 24.202 68.987,24.056 68.500,23.996 68.500 C 23.936 68.500,23.790 67.956,23.672 67.292 C 23.554 66.627,23.407 66.046,23.346 66.000 C 23.284 65.954,23.098 65.185,22.932 64.290 C 22.766 63.396,22.571 62.627,22.497 62.582 C 22.424 62.536,22.270 61.974,22.155 61.333 C 22.040 60.691,21.897 60.167,21.837 60.167 C 21.776 60.167,21.629 59.567,21.510 58.833 C 21.391 58.100,21.242 57.500,21.179 57.500 C 21.116 57.500,20.932 56.807,20.769 55.960 C 20.607 55.113,20.415 54.344,20.342 54.251 C 20.270 54.159,20.115 53.558,19.998 52.917 C 19.881 52.275,19.733 51.712,19.670 51.667 C 19.607 51.621,19.423 50.908,19.262 50.083 C 19.100 49.258,18.909 48.508,18.837 48.417 C 18.765 48.325,18.610 47.706,18.493 47.042 C 18.376 46.377,18.228 45.833,18.164 45.833 C 18.100 45.833,17.951 45.271,17.833 44.583 C 17.716 43.896,17.566 43.333,17.501 43.333 C 17.436 43.333,17.296 42.814,17.191 42.179 C 17.087 41.543,16.927 40.831,16.838 40.595 L 16.675 40.167 9.337 40.167 L 2.000 40.167 2.000 60.500 M65.054 40.458 C 64.997 40.619,64.819 41.050,64.657 41.417 C 64.496 41.783,64.311 42.365,64.247 42.708 C 64.182 43.052,64.079 43.333,64.018 43.333 C 63.956 43.333,63.804 43.690,63.679 44.125 C 63.554 44.560,63.397 44.992,63.329 45.083 C 63.262 45.175,63.086 45.671,62.939 46.185 C 62.791 46.700,62.558 47.337,62.420 47.602 C 62.282 47.867,62.168 48.196,62.167 48.333 C 62.166 48.471,62.053 48.797,61.918 49.057 C 61.782 49.318,61.559 49.880,61.424 50.307 C 60.999 51.642,60.492 53.063,60.254 53.583 C 60.128 53.858,59.972 54.308,59.907 54.583 C 59.841 54.858,59.731 55.158,59.662 55.250 C 59.592 55.342,59.405 55.885,59.246 56.458 C 59.087 57.031,58.901 57.500,58.834 57.500 C 58.767 57.500,58.617 57.950,58.500 58.500 C 58.383 59.050,58.235 59.500,58.170 59.500 C 58.106 59.500,57.961 59.819,57.849 60.208 C 57.737 60.598,57.543 61.142,57.419 61.417 C 57.294 61.692,57.102 62.273,56.993 62.708 C 56.883 63.144,56.736 63.500,56.665 63.500 C 56.595 63.500,56.485 63.781,56.421 64.125 C 56.358 64.469,56.201 64.975,56.073 65.250 C 55.790 65.856,55.238 67.421,54.869 68.667 C 54.719 69.171,54.543 69.606,54.478 69.635 C 54.413 69.663,54.264 70.057,54.148 70.510 C 54.032 70.963,53.876 71.333,53.802 71.333 C 53.727 71.333,53.663 71.465,53.659 71.625 C 53.655 71.785,53.537 72.217,53.397 72.583 C 53.257 72.950,53.135 73.344,53.127 73.458 C 53.118 73.573,53.057 73.667,52.991 73.667 C 52.925 73.667,52.818 73.948,52.753 74.292 C 52.689 74.635,52.491 75.235,52.314 75.625 C 52.137 76.015,51.947 76.558,51.892 76.833 C 51.837 77.108,51.740 77.333,51.678 77.333 C 51.615 77.333,51.428 77.858,51.262 78.500 C 51.095 79.142,50.893 79.667,50.813 79.667 C 50.732 79.667,50.667 79.892,50.667 80.167 L 50.667 80.667 55.735 80.667 L 60.804 80.667 60.917 80.000 C 60.979 79.633,61.087 79.333,61.159 79.333 C 61.230 79.333,61.383 78.883,61.500 78.333 C 61.617 77.783,61.770 77.333,61.841 77.333 C 61.913 77.333,62.019 77.045,62.079 76.693 C 62.138 76.341,62.282 75.869,62.399 75.645 C 62.515 75.420,62.750 74.714,62.920 74.076 C 63.090 73.439,63.279 72.879,63.341 72.833 C 63.402 72.787,63.547 72.337,63.664 71.833 C 63.781 71.329,63.935 70.842,64.007 70.750 C 64.078 70.658,64.204 70.321,64.287 70.000 L 64.438 69.417 70.862 69.373 L 77.287 69.329 77.500 70.331 C 77.617 70.882,77.765 71.333,77.830 71.333 C 77.894 71.333,78.042 71.765,78.159 72.292 C 78.275 72.819,78.425 73.325,78.492 73.417 C 78.560 73.508,78.747 74.071,78.909 74.667 C 79.070 75.262,79.260 75.825,79.329 75.917 C 79.399 76.008,79.552 76.496,79.669 77.000 C 79.786 77.504,79.934 77.954,79.997 78.000 C 80.061 78.046,80.204 78.458,80.315 78.917 C 80.427 79.375,80.607 79.956,80.716 80.208 L 80.915 80.667 86.059 80.667 L 91.204 80.667 91.087 80.042 C 91.022 79.699,90.911 79.380,90.839 79.334 C 90.767 79.288,90.653 78.987,90.585 78.667 C 90.518 78.346,90.319 77.765,90.144 77.375 C 89.968 76.985,89.780 76.442,89.725 76.167 C 89.670 75.892,89.559 75.667,89.479 75.667 C 89.399 75.667,89.333 75.563,89.333 75.436 C 89.333 75.124,88.793 73.438,88.660 73.333 C 88.602 73.287,88.461 72.876,88.348 72.419 C 88.235 71.962,88.084 71.512,88.014 71.419 C 87.943 71.326,87.789 70.894,87.671 70.458 C 87.553 70.023,87.403 69.667,87.338 69.667 C 87.273 69.667,87.131 69.272,87.024 68.791 C 86.916 68.309,86.726 67.718,86.601 67.478 C 86.477 67.238,86.276 66.658,86.156 66.188 C 86.036 65.718,85.888 65.333,85.828 65.333 C 85.769 65.333,85.621 64.921,85.500 64.417 C 85.379 63.913,85.232 63.500,85.172 63.500 C 85.113 63.500,84.928 62.975,84.762 62.333 C 84.595 61.692,84.402 61.167,84.331 61.167 C 84.261 61.167,84.151 60.885,84.087 60.542 C 84.022 60.198,83.834 59.617,83.668 59.250 C 83.502 58.883,83.276 58.246,83.167 57.833 C 83.057 57.421,82.910 57.008,82.840 56.917 C 82.770 56.825,82.659 56.528,82.594 56.256 C 82.529 55.984,82.338 55.459,82.170 55.089 C 82.001 54.719,81.811 54.135,81.747 53.792 C 81.682 53.448,81.577 53.167,81.513 53.167 C 81.449 53.167,81.304 52.806,81.191 52.366 C 81.078 51.925,80.884 51.368,80.759 51.127 C 80.634 50.886,80.477 50.443,80.411 50.143 C 80.345 49.842,80.156 49.331,79.990 49.007 C 79.824 48.682,79.637 48.135,79.575 47.792 C 79.514 47.448,79.412 47.167,79.350 47.167 C 79.287 47.167,79.092 46.642,78.917 46.000 C 78.741 45.358,78.546 44.833,78.484 44.833 C 78.421 44.833,78.318 44.552,78.253 44.208 C 78.189 43.865,77.991 43.265,77.814 42.875 C 77.637 42.485,77.447 41.942,77.392 41.667 C 77.337 41.392,77.235 41.167,77.167 41.167 C 77.098 41.167,76.997 40.942,76.942 40.667 L 76.842 40.167 70.999 40.167 C 65.585 40.167,65.149 40.188,65.054 40.458 M219.568 47.642 C 219.616 47.720,220.405 47.826,221.320 47.876 C 223.634 48.003,225.544 48.977,225.934 50.228 C 225.995 50.423,226.129 50.637,226.231 50.702 C 226.625 50.954,226.465 54.340,226.025 55.042 C 224.809 56.984,223.350 57.667,220.418 57.667 C 219.649 57.667,218.973 57.742,218.917 57.833 C 218.855 57.933,217.776 58.000,216.240 58.000 L 213.667 58.000 213.667 52.750 L 213.667 47.500 216.573 47.500 C 218.172 47.500,219.520 47.564,219.568 47.642 M71.668 51.897 C 71.668 51.999,71.771 52.279,71.895 52.518 C 72.020 52.756,72.218 53.356,72.335 53.851 C 72.452 54.345,72.603 54.788,72.670 54.833 C 72.736 54.879,72.918 55.477,73.073 56.162 C 73.227 56.847,73.415 57.485,73.489 57.579 C 73.563 57.673,73.718 58.163,73.833 58.667 C 73.949 59.171,74.098 59.658,74.164 59.750 C 74.291 59.924,74.667 61.352,74.667 61.657 C 74.667 61.776,73.416 61.833,70.833 61.833 C 68.725 61.833,67.000 61.792,67.000 61.741 C 67.000 61.435,67.563 59.235,67.659 59.167 C 67.722 59.121,67.871 58.708,67.989 58.250 C 68.107 57.792,68.300 57.192,68.418 56.917 C 68.536 56.642,68.727 55.985,68.843 55.458 C 68.958 54.931,69.106 54.500,69.170 54.500 C 69.235 54.500,69.386 54.031,69.505 53.458 C 69.625 52.885,69.773 52.379,69.834 52.333 C 69.896 52.288,70.038 51.875,70.149 51.417 C 70.261 50.958,70.475 50.304,70.624 49.962 L 70.894 49.341 71.280 50.526 C 71.493 51.177,71.667 51.794,71.668 51.897 " stroke="none" fill="#647cfc" fill-rule="evenodd"></path></g></svg>